<svg width="31" height="36" viewBox="0 0 31 36" fill="none" xmlns="http://www.w3.org/2000/svg">
<g clip-path="url(#clip0)">
<path d="M13.9071 35.2737C2.17727 20.4631 0 18.9431 0 13.5C0 6.04413 6.93956 0 15.5 0C24.0604 0 31 6.04413 31 13.5C31 18.9431 28.8227 20.4631 17.0929 35.2737C16.3232 36.2422 14.6767 36.2421 13.9071 35.2737ZM15.5 19.125C19.0669 19.125 21.9583 16.6066 21.9583 13.5C21.9583 10.3934 19.0669 7.875 15.5 7.875C11.9331 7.875 9.04167 10.3934 9.04167 13.5C9.04167 16.6066 11.9331 19.125 15.5 19.125Z" fill="black"/>
</g>
<defs>
<clipPath id="clip0">
<rect width="31" height="36" fill="white"/>
</clipPath>
</defs>
</svg>
