<svg width="25" height="25" viewBox="0 0 25 25" fill="none" xmlns="http://www.w3.org/2000/svg">
<path d="M22.9219 14.7128L24.9737 4.55659C25.1218 3.82329 24.6264 3.125 23.9579 3.125H6.91007L6.51224 0.937012C6.41311 0.39165 5.98655 0 5.49171 0H1.04167C0.466363 0 0 0.524658 0 1.17188V1.95312C0 2.60034 0.466363 3.125 1.04167 3.125H4.07478L7.12374 19.8943C6.39432 20.3662 5.90278 21.2511 5.90278 22.2656C5.90278 23.7758 6.99097 25 8.33333 25C9.6757 25 10.7639 23.7758 10.7639 22.2656C10.7639 21.5003 10.4841 20.8088 10.0337 20.3125H19.1329C18.6826 20.8088 18.4028 21.5003 18.4028 22.2656C18.4028 23.7758 19.491 25 20.8333 25C22.1757 25 23.2639 23.7758 23.2639 22.2656C23.2639 21.183 22.7045 20.2475 21.8933 19.8044L22.1327 18.6191C22.2809 17.8858 21.7854 17.1875 21.117 17.1875H9.46689L9.18281 15.625H21.9061C22.3925 15.625 22.8141 15.2464 22.9219 14.7128Z" fill="black"/>
</svg>
