<svg width="29" height="33" viewBox="0 0 29 33" fill="none" xmlns="http://www.w3.org/2000/svg">
<path d="M14.5 16.5C19.0766 16.5 22.7857 12.8068 22.7857 8.25C22.7857 3.69316 19.0766 0 14.5 0C9.92344 0 6.21429 3.69316 6.21429 8.25C6.21429 12.8068 9.92344 16.5 14.5 16.5ZM20.3 18.5625H19.219C17.7819 19.2199 16.183 19.5938 14.5 19.5938C12.817 19.5938 11.2246 19.2199 9.78103 18.5625H8.7C3.89687 18.5625 0 22.4426 0 27.225V29.9062C0 31.6143 1.39174 33 3.10714 33H25.8929C27.6083 33 29 31.6143 29 29.9062V27.225C29 22.4426 25.1031 18.5625 20.3 18.5625Z" fill="black"/>
</svg>
