<svg width="491" height="457" viewBox="0 0 491 457" fill="none" xmlns="http://www.w3.org/2000/svg">
<circle cx="229" cy="228" r="221" fill="" fill-opacity="0.01" stroke="#DAD7D2" stroke-width="5"/>
<circle cx="8" cy="228" r="8" fill="#C4C4C4"/>
<circle cx="450" cy="225" r="8" fill="#C4C4C4"/>
<circle cx="68" cy="78" r="8" fill="#C4C4C4"/>
<circle cx="232" cy="8" r="8" fill="#C4C4C4"/>
<circle cx="232" cy="449" r="8" fill="#C4C4C4"/>
<circle cx="387" cy="384" r="8" fill="#C4C4C4"/>
<circle cx="392" cy="78" r="8" fill="#C4C4C4"/>
<circle cx="68" cy="382" r="8" fill="#C4C4C4"/>
<path d="M63.1687 269.249L47.0685 265.773L47.0422 265.635L60.7216 256.461L61.2253 259.093L58.1181 261.052L59.1142 266.258L62.7364 266.99L63.1687 269.249ZM56.9958 265.828L56.3003 262.194L52.144 264.842L56.9958 265.828Z" fill="#C4C4C4"/>
<path d="M45.0495 246.04C44.9746 244.962 45.0958 244.012 45.4128 243.188C45.7156 242.351 46.2042 241.689 46.8787 241.201C47.539 240.701 48.3612 240.417 49.3455 240.349C50.1702 240.291 50.9874 240.415 51.7971 240.72C52.6068 241.024 53.2607 241.587 53.7588 242.408L59.1201 238.487L59.3071 241.18L54.4865 244.803C54.492 244.883 54.4975 244.963 54.5031 245.043L54.6486 247.137L59.6964 246.787L59.8585 249.121L45.3335 250.13L45.0495 246.04ZM52.2699 245.218C52.2218 244.526 52.0514 243.997 51.7586 243.629C51.4525 243.263 51.1015 243.02 50.7056 242.9C50.2955 242.769 49.9241 242.714 49.5916 242.737C49.2724 242.759 48.925 242.857 48.5494 243.03C48.1605 243.204 47.8393 243.487 47.5859 243.879C47.3191 244.272 47.2093 244.807 47.2564 245.486L47.406 247.64L52.4139 247.293L52.2699 245.218Z" fill="#C4C4C4"/>
<path d="M44.5402 229.525L45.0271 219.877L47.2642 219.99L46.8953 227.301L50.7704 227.496L51.099 220.985L53.3361 221.098L53.0075 227.609L56.9625 227.809L57.3455 220.219L59.5827 220.331L59.0817 230.259L44.5402 229.525Z" fill="#C4C4C4"/>
<path d="M63.3073 198.937L51.4151 207.45L60.9304 209.116L60.5088 211.438L45.6911 208.748L45.7125 208.63L57.7353 200.182L48.0661 198.467L48.4806 196.184L63.318 198.878L63.3073 198.937Z" fill="#C4C4C4"/>
<path d="M320.885 78.6698L334.891 70.0018L335.005 70.0826L331.52 86.1808L329.331 84.6348L330.209 81.0682L325.88 78.0107L322.763 79.9967L320.885 78.6698ZM327.703 76.8501L330.726 78.9846L331.881 74.1936L327.703 76.8501Z" fill="#C4C4C4"/>
<path d="M350.036 82.8113C350.838 83.5352 351.41 84.3039 351.754 85.1172C352.116 85.9295 352.223 86.7453 352.076 87.5647C351.948 88.3831 351.553 89.1583 350.891 89.8905C350.337 90.5039 349.663 90.9819 348.869 91.3243C348.074 91.6668 347.213 91.7152 346.285 91.4697L345.144 98.0131L343.141 96.2032L344.099 90.2497C344.039 90.196 343.98 90.1424 343.92 90.0888L342.362 88.6811L338.97 92.4359L337.234 90.8674L346.994 80.0629L350.036 82.8113ZM345.407 88.4132C345.922 88.8779 346.412 89.141 346.877 89.2023C347.352 89.2537 347.773 89.1851 348.141 88.9965C348.528 88.8069 348.833 88.5884 349.057 88.3411C349.271 88.1036 349.454 87.7923 349.604 87.407C349.763 87.0119 349.798 86.5853 349.709 86.1273C349.629 85.6593 349.336 85.1974 348.832 84.7416L347.229 83.2937L343.864 87.0189L345.407 88.4132Z" fill="#C4C4C4"/>
<path d="M361.862 94.3506L368.205 101.636L366.516 103.107L361.709 97.5864L358.783 100.134L363.064 105.051L361.375 106.522L357.093 101.605L354.107 104.206L359.098 109.937L357.408 111.408L350.881 103.912L361.862 94.3506Z" fill="#C4C4C4"/>
<path d="M369.57 129.399L372.228 115.018L364.219 120.42L362.912 118.455L375.449 110.111L375.516 110.211L372.719 124.637L380.872 119.163L382.158 121.094L369.603 129.449L369.57 129.399Z" fill="#C4C4C4"/>
<path d="M268.623 396.53L264.821 412.556L264.683 412.58L255.788 398.717L258.43 398.267L260.325 401.413L265.55 400.523L266.356 396.916L268.623 396.53ZM265.077 402.632L261.43 403.254L263.993 407.463L265.077 402.632Z" fill="#C4C4C4"/>
<path d="M245.05 414.174C243.972 414.226 243.024 414.086 242.206 413.752C241.376 413.433 240.724 412.931 240.25 412.246C239.763 411.576 239.496 410.748 239.448 409.763C239.407 408.937 239.547 408.123 239.868 407.319C240.19 406.516 240.765 405.873 241.596 405.392L237.785 399.952L240.482 399.82L244.006 404.713C244.086 404.709 244.166 404.706 244.246 404.702L246.343 404.599L246.095 399.545L248.432 399.43L249.145 413.973L245.05 414.174ZM244.375 406.938C243.683 406.972 243.15 407.132 242.777 407.417C242.404 407.715 242.154 408.061 242.027 408.455C241.886 408.862 241.825 409.232 241.841 409.565C241.857 409.885 241.947 410.234 242.112 410.613C242.279 411.006 242.555 411.332 242.942 411.594C243.329 411.868 243.862 411.989 244.541 411.956L246.699 411.85L246.453 406.836L244.375 406.938Z" fill="#C4C4C4"/>
<path d="M228.529 414.347L218.893 413.664L219.051 411.43L226.353 411.947L226.627 408.077L220.123 407.616L220.282 405.382L226.786 405.842L227.065 401.892L219.485 401.355L219.643 399.121L229.558 399.823L228.529 414.347Z" fill="#C4C4C4"/>
<path d="M198.329 394.962L206.598 407.025L208.458 397.545L210.771 398.014L207.779 412.774L207.662 412.75L199.46 400.558L197.549 410.19L195.275 409.729L198.27 394.95L198.329 394.962Z" fill="#C4C4C4"/>
<path d="M83.7353 144.213L69.8872 138.243L69.8951 138.225L82.2277 135.635L75.6906 124.781L75.7064 124.744L89.5545 130.714L88.6361 132.844L80.9039 129.511L85.5336 137.06L85.5177 137.097L77.21 138.939L84.6299 142.137L83.7353 144.213Z" fill="#C4C4C4"/>
<path d="M93.1305 123.949L83.607 110.51L83.6804 110.391L99.9645 112.866L98.5578 115.148L94.9434 114.493L92.1615 119.004L94.3377 121.991L93.1305 123.949ZM90.8896 117.256L92.8317 114.107L87.978 113.252L90.8896 117.256Z" fill="#C4C4C4"/>
<path d="M92.3203 98.6345L98.4027 91.0271L100.152 92.426L97.8042 95.3627L107.427 103.056L105.978 104.868L96.3554 97.1747L94.0698 100.033L92.3203 98.6345Z" fill="#C4C4C4"/>
<path d="M122.175 85.6698C122.125 85.9238 122.022 86.2763 121.866 86.7271C121.72 87.1687 121.493 87.6518 121.186 88.1764C120.869 88.6915 120.458 89.1868 119.953 89.6621C119.134 90.4451 118.265 91.0155 117.346 91.3732C116.419 91.7213 115.493 91.8809 114.569 91.852C113.646 91.8041 112.762 91.587 111.917 91.2007C111.064 90.8048 110.292 90.2542 109.602 89.5489C108.828 88.7579 108.243 87.9123 107.848 87.0123C107.461 86.1029 107.259 85.1908 107.241 84.276C107.223 83.3424 107.393 82.4391 107.752 81.5662C108.119 80.6839 108.68 79.8745 109.433 79.1378C110.09 78.4944 110.765 78.0115 111.457 77.6891C112.149 77.3478 112.779 77.1142 113.346 76.9884L114.213 79.1901C113.769 79.2701 113.258 79.4154 112.68 79.6259C112.103 79.8365 111.562 80.1888 111.056 80.683C110.437 81.2891 110.028 82.0154 109.831 82.8618C109.633 83.6893 109.647 84.5428 109.873 85.4221C110.1 86.2826 110.553 87.0607 111.234 87.7564C111.942 88.4808 112.715 88.9842 113.551 89.2668C114.396 89.54 115.24 89.5823 116.081 89.3935C116.922 89.1858 117.705 88.7277 118.43 88.019C118.973 87.4875 119.365 86.9449 119.607 86.3913C119.84 85.8281 119.977 85.3205 120.02 84.8684L122.175 85.6698Z" fill="#C4C4C4"/>
<path d="M129.925 62.4812L138.609 74.168L136.731 75.5636L133.033 70.5871L127.286 74.8576L130.984 79.8341L129.105 81.2297L120.421 69.5429L122.299 68.1473L125.962 73.0757L131.709 68.8052L128.047 63.8768L129.925 62.4812Z" fill="#C4C4C4"/>
<path d="M144.908 70.064L143.232 53.6784L143.354 53.6108L156.311 63.7805L153.964 65.0739L151.14 62.7252L146.498 65.283L146.922 68.954L144.908 70.064ZM146.251 63.1356L149.491 61.35L145.687 58.217L146.251 63.1356Z" fill="#C4C4C4"/>
<path d="M390.19 173.421L404.304 168.11L404.311 168.129L397.228 178.551L409.467 181.831L409.481 181.868L395.368 187.179L394.55 185.008L402.431 182.043L393.859 179.819L393.845 179.782L398.549 172.691L390.986 175.536L390.19 173.421Z" fill="#C4C4C4"/>
<path d="M397.487 194.532L413.67 197.6L413.7 197.737L400.256 207.254L399.686 204.635L402.743 202.599L401.616 197.42L397.976 196.779L397.487 194.532ZM403.744 197.796L404.531 201.411L408.619 198.659L403.744 197.796Z" fill="#C4C4C4"/>
<path d="M415.636 212.197L416.535 221.896L414.305 222.103L413.958 218.359L401.69 219.496L401.476 217.186L413.744 216.049L413.406 212.404L415.636 212.197Z" fill="#C4C4C4"/>
<path d="M403.136 242.249C402.995 242.032 402.825 241.707 402.624 241.274C402.423 240.854 402.251 240.349 402.108 239.758C401.979 239.167 401.931 238.526 401.965 237.833C402.012 236.701 402.242 235.687 402.655 234.792C403.081 233.897 403.637 233.14 404.322 232.52C405.02 231.914 405.808 231.457 406.684 231.149C407.573 230.842 408.511 230.702 409.497 230.731C410.603 230.764 411.611 230.967 412.521 231.341C413.43 231.728 414.208 232.244 414.856 232.89C415.517 233.55 416.021 234.318 416.369 235.196C416.716 236.086 416.874 237.058 416.843 238.111C416.816 239.03 416.665 239.846 416.391 240.558C416.13 241.284 415.838 241.889 415.517 242.374L413.365 241.39C413.629 241.024 413.896 240.565 414.166 240.013C414.436 239.461 414.581 238.831 414.602 238.125C414.627 237.259 414.418 236.452 413.973 235.705C413.541 234.972 412.938 234.368 412.165 233.891C411.405 233.429 410.539 233.183 409.566 233.155C408.553 233.125 407.647 233.298 406.849 233.675C406.051 234.065 405.414 234.62 404.94 235.339C404.478 236.073 404.232 236.946 404.202 237.959C404.18 238.718 404.274 239.382 404.484 239.948C404.707 240.515 404.96 240.976 405.243 241.331L403.136 242.249Z" fill="#C4C4C4"/>
<path d="M413.646 264.324L399.283 261.935L399.667 259.627L405.783 260.644L406.958 253.581L400.842 252.564L401.226 250.256L415.589 252.645L415.205 254.953L409.148 253.945L407.973 261.008L414.03 262.016L413.646 264.324Z" fill="#C4C4C4"/>
<path d="M397.596 269.261L410.173 279.897L410.131 280.03L393.745 281.698L394.538 279.138L398.201 278.87L399.768 273.807L396.916 271.458L397.596 269.261ZM401.436 275.182L400.342 278.716L405.255 278.332L401.436 275.182Z" fill="#C4C4C4"/>
<path d="M126.558 360.957C126.904 360.909 127.365 360.952 127.941 361.085C128.518 361.218 129.119 361.409 129.743 361.659C130.35 361.911 130.886 362.204 131.352 362.537C132.622 363.444 133.545 364.48 134.122 365.645C134.691 366.821 134.921 368.026 134.811 369.258C134.701 370.49 134.251 371.66 133.461 372.767C132.725 373.797 131.911 374.593 131.02 375.152C130.129 375.712 129.212 376.056 128.268 376.185C127.324 376.314 126.392 376.255 125.471 376.007C124.539 375.751 123.666 375.333 122.853 374.752C122.136 374.241 121.533 373.687 121.041 373.09C120.55 372.493 120.171 371.911 119.904 371.344L121.778 370.028C121.909 370.302 122.099 370.61 122.347 370.951C122.577 371.295 122.836 371.619 123.126 371.925C123.416 372.23 123.697 372.479 123.968 372.673C125.314 373.634 126.65 374.023 127.977 373.839C129.293 373.649 130.431 372.88 131.392 371.535C131.973 370.721 132.296 369.878 132.361 369.007C132.425 368.136 132.258 367.304 131.858 366.51C131.447 365.709 130.813 365.002 129.956 364.39C129.587 364.127 129.205 363.904 128.812 363.721C128.418 363.538 128.046 363.428 127.696 363.391L126.289 365.361L128.519 366.953L127.218 368.776L123.083 365.824L126.558 360.957Z" fill="#C4C4C4"/>
<path d="M121.145 355.089L106.42 362.468L106.313 362.378L111.225 346.656L113.267 348.392L112.073 351.865L116.111 355.298L119.393 353.599L121.145 355.089ZM114.191 356.291L111.372 353.894L109.792 358.563L114.191 356.291Z" fill="#C4C4C4"/>
<path d="M99.7473 342.202L96.5769 352.96L94.5577 350.934L96.988 343.202L89.305 345.665L87.2858 343.64L98.1093 340.559L101.452 337.227L103.09 338.87L99.7473 342.202Z" fill="#C4C4C4"/>
<path d="M86.9735 332.583C86.1939 333.23 85.3369 333.691 84.4026 333.964C83.4581 334.246 82.507 334.342 81.5495 334.253C80.5817 334.173 79.6637 333.913 78.7955 333.473C77.9085 333.031 77.1371 332.415 76.4812 331.625C75.8338 330.845 75.3787 329.984 75.1157 329.041C74.8339 328.097 74.7425 327.141 74.8415 326.175C74.9217 325.208 75.1871 324.285 75.6376 323.409C76.0693 322.53 76.675 321.767 77.4546 321.12C78.2444 320.464 79.1107 320.005 80.0535 319.742C80.9878 319.468 81.938 319.381 82.9041 319.48C83.8617 319.569 84.7788 319.839 85.6555 320.289C86.5237 320.729 87.2815 321.339 87.9288 322.119C88.5847 322.909 89.0587 323.772 89.3507 324.708C89.6239 325.642 89.7213 326.584 89.6428 327.533C89.5541 328.49 89.2896 329.403 88.8494 330.271C88.3989 331.148 87.7736 331.919 86.9735 332.583ZM85.4402 330.737C86.1788 330.123 86.7058 329.391 87.0214 328.54C87.3268 327.697 87.4162 326.834 87.2897 325.951C87.1547 325.058 86.7805 324.242 86.1672 323.504C85.5709 322.786 84.8548 322.288 84.0188 322.012C83.1742 321.726 82.3139 321.66 81.4379 321.816C80.543 321.969 79.7264 322.353 78.9878 322.966C78.239 323.588 77.7068 324.325 77.3912 325.176C77.0756 326.027 76.9811 326.894 77.1076 327.777C77.2341 328.66 77.5997 329.466 78.2045 330.194C78.8093 330.922 79.5339 331.43 80.3785 331.716C81.223 332.003 82.0979 332.065 83.0029 331.903C83.8892 331.739 84.7017 331.35 85.4402 330.737Z" fill="#C4C4C4"/>
<path d="M367.142 335.242C367.121 334.894 367.199 334.438 367.377 333.873C367.555 333.309 367.792 332.725 368.09 332.122C368.389 331.537 368.723 331.025 369.091 330.586C370.094 329.391 371.199 328.552 372.406 328.067C373.623 327.592 374.842 327.457 376.061 327.663C377.281 327.868 378.412 328.408 379.454 329.283C380.424 330.097 381.154 330.97 381.642 331.902C382.13 332.834 382.402 333.776 382.457 334.727C382.512 335.678 382.379 336.603 382.06 337.502C381.733 338.41 381.248 339.248 380.605 340.014C380.039 340.688 379.44 341.246 378.807 341.69C378.173 342.133 377.564 342.466 376.977 342.687L375.811 340.717C376.095 340.607 376.417 340.441 376.776 340.221C377.137 340.019 377.481 339.785 377.808 339.52C378.135 339.255 378.405 338.995 378.62 338.739C379.682 337.473 380.174 336.171 380.095 334.834C380.008 333.507 379.331 332.313 378.064 331.25C377.298 330.607 376.484 330.219 375.62 330.086C374.757 329.954 373.914 330.056 373.092 330.392C372.261 330.74 371.507 331.317 370.83 332.123C370.538 332.471 370.286 332.833 370.073 333.212C369.86 333.59 369.721 333.952 369.657 334.299L371.511 335.854L373.272 333.755L374.988 335.195L371.722 339.087L367.142 335.242Z" fill="#C4C4C4"/>
<path d="M360.869 340.18L367.076 355.437L366.977 355.537L351.687 349.412L353.577 347.511L356.947 348.973L360.684 345.216L359.247 341.811L360.869 340.18ZM361.524 347.207L358.915 349.831L363.445 351.77L361.524 347.207Z" fill="#C4C4C4"/>
<path d="M346.351 360.507L356.828 364.507L354.651 366.362L347.132 363.336L348.987 371.188L346.811 373.042L344.585 362.011L341.524 358.419L343.289 356.914L346.351 360.507Z" fill="#C4C4C4"/>
<path d="M335.763 372.491C336.348 373.318 336.74 374.209 336.939 375.161C337.146 376.125 337.168 377.081 337.005 378.028C336.849 378.987 336.518 379.882 336.012 380.713C335.502 381.563 334.827 382.284 333.989 382.876C333.161 383.46 332.267 383.847 331.306 384.036C330.343 384.243 329.383 384.259 328.428 384.085C327.469 383.93 326.571 383.593 325.732 383.075C324.89 382.576 324.176 381.913 323.592 381.085C323 380.247 322.609 379.347 322.421 378.387C322.221 377.434 322.209 376.48 322.383 375.524C322.546 374.577 322.886 373.683 323.404 372.845C323.911 372.013 324.578 371.306 325.406 370.721C326.244 370.129 327.142 369.724 328.098 369.506C329.05 369.306 329.997 369.283 330.937 369.435C331.884 369.598 332.774 369.933 333.605 370.44C334.444 370.957 335.163 371.641 335.763 372.491ZM333.803 373.875C333.249 373.091 332.56 372.508 331.736 372.127C330.92 371.757 330.066 371.6 329.176 371.657C328.275 371.722 327.433 372.032 326.649 372.585C325.886 373.124 325.335 373.799 324.994 374.611C324.642 375.43 324.51 376.283 324.596 377.168C324.68 378.073 324.999 378.917 325.552 379.701C326.114 380.496 326.807 381.084 327.631 381.465C328.455 381.846 329.312 382.008 330.202 381.951C331.092 381.894 331.923 381.592 332.697 381.046C333.47 380.5 334.032 379.817 334.384 378.998C334.736 378.178 334.866 377.311 334.775 376.396C334.68 375.499 334.356 374.659 333.803 373.875Z" fill="#C4C4C4"/>
<path d="M206.254 52.0969C206.034 52.368 205.668 52.6517 205.156 52.9481C204.644 53.2444 204.074 53.5147 203.448 53.7589C202.832 53.9882 202.241 54.1404 201.672 54.2155C200.126 54.4199 198.744 54.2932 197.527 53.8354C196.308 53.3644 195.318 52.6412 194.557 51.6658C193.796 50.6905 193.326 49.5286 193.148 48.1804C192.982 46.9246 193.034 45.7881 193.303 44.7707C193.572 43.7534 194.007 42.8754 194.609 42.1369C195.21 41.3983 195.932 40.8053 196.774 40.3578C197.629 39.9085 198.553 39.6184 199.544 39.4873C200.417 39.372 201.236 39.3646 202.002 39.4651C202.769 39.5655 203.443 39.7319 204.025 39.9643L203.555 42.2053C203.271 42.0948 202.922 41.9997 202.508 41.9199C202.106 41.8252 201.694 41.7652 201.274 41.7401C200.854 41.7149 200.479 41.7242 200.148 41.7679C198.509 41.9845 197.267 42.6126 196.423 43.6522C195.592 44.6901 195.284 46.0285 195.501 47.6676C195.632 48.659 195.971 49.4951 196.519 50.1759C197.066 50.8568 197.756 51.3505 198.59 51.6572C199.438 51.9622 200.383 52.0456 201.428 51.9076C201.877 51.8482 202.308 51.7509 202.721 51.6157C203.133 51.4805 203.48 51.3069 203.761 51.0948L203.444 48.6957L200.728 49.0547L200.434 46.834L205.471 46.1684L206.254 52.0969Z" fill="#C4C4C4"/>
<path d="M214.216 52.6895L219.938 37.2442L220.078 37.2376L227.221 52.0791L224.544 52.2047L223.045 48.8513L217.751 49.0998L216.513 52.5816L214.216 52.6895ZM218.476 47.0635L222.172 46.89L220.14 42.4004L218.476 47.0635Z" fill="#C4C4C4"/>
<path d="M238.649 47.4973L233.621 37.4725L236.479 37.574L239.982 44.8829L243.915 37.8381L246.773 37.9395L240.967 47.5796L240.8 52.2966L238.481 52.2143L238.649 47.4973Z" fill="#C4C4C4"/>
<path d="M254.55 45.8054C254.677 44.8002 254.989 43.8788 255.485 43.0413C255.983 42.1906 256.612 41.4708 257.373 40.8819C258.134 40.2798 258.983 39.8432 259.918 39.5722C260.868 39.2896 261.852 39.213 262.87 39.3424C263.876 39.4701 264.796 39.7886 265.632 40.298C266.483 40.7958 267.202 41.4315 267.789 42.2049C268.391 42.9669 268.827 43.8219 269.096 44.7701C269.38 45.7067 269.459 46.6776 269.331 47.6829C269.202 48.7014 268.882 49.6285 268.373 50.4643C267.877 51.3018 267.242 52.0142 266.468 52.6014C265.708 53.1903 264.854 53.6194 263.906 53.8888C262.971 54.1598 262.001 54.2315 260.995 54.1038C259.977 53.9744 259.041 53.6674 258.189 53.1828C257.352 52.6867 256.638 52.0651 256.047 51.318C255.458 50.5578 255.028 49.7102 254.757 48.7752C254.488 47.8271 254.419 46.8371 254.55 45.8054ZM256.931 46.1079C256.81 47.0602 256.924 47.9551 257.275 48.7927C257.627 49.6169 258.151 50.3084 258.846 50.8672C259.554 51.4275 260.385 51.7682 261.337 51.8892C262.263 52.0068 263.126 51.8812 263.925 51.5123C264.738 51.1451 265.411 50.6057 265.945 49.8939C266.494 49.1707 266.829 48.3328 266.95 47.3805C267.073 46.4149 266.959 45.5134 266.608 44.6759C266.257 43.8383 265.735 43.1402 265.039 42.5815C264.344 42.0228 263.527 41.6838 262.588 41.5645C261.649 41.4452 260.773 41.5692 259.96 41.9364C259.148 42.3036 258.466 42.8554 257.915 43.5919C257.38 44.3168 257.051 45.1555 256.931 46.1079Z" fill="#C4C4C4"/>
</svg>
